<svg width="20" height="14" viewBox="0 0 20 14" fill="none" xmlns="http://www.w3.org/2000/svg">
<path d="M1.7181 7.28981C1.64865 7.10271 1.64865 6.89691 1.7181 6.70981C2.39452 5.06969 3.5427 3.66735 5.01708 2.68056C6.49146 1.69378 8.22564 1.16699 9.99977 1.16699C11.7739 1.16699 13.5081 1.69378 14.9825 2.68056C16.4568 3.66735 17.605 5.06969 18.2814 6.70981C18.3509 6.89691 18.3509 7.10271 18.2814 7.28981C17.605 8.92993 16.4568 10.3323 14.9825 11.3191C13.5081 12.3058 11.7739 12.8326 9.99977 12.8326C8.22564 12.8326 6.49146 12.3058 5.01708 11.3191C3.5427 10.3323 2.39452 8.92993 1.7181 7.28981Z" stroke="#3B82F6" stroke-width="1.66667" stroke-linecap="round" stroke-linejoin="round"/>
<path d="M9.99977 9.49981C11.3805 9.49981 12.4998 8.38052 12.4998 6.99981C12.4998 5.6191 11.3805 4.49981 9.99977 4.49981C8.61906 4.49981 7.49977 5.6191 7.49977 6.99981C7.49977 8.38052 8.61906 9.49981 9.99977 9.49981Z" stroke="#3B82F6" stroke-width="1.66667" stroke-linecap="round" stroke-linejoin="round"/>
</svg>
