<svg width="20" height="18" viewBox="0 0 20 18" fill="none" xmlns="http://www.w3.org/2000/svg">
<path d="M2.68317 9H7.9165L8.33317 8.16667L9.99984 11.9167L11.6665 6.08333L12.9165 9H17.3082M15.8332 10.6667C17.0748 9.45 18.3332 7.99167 18.3332 6.08333C18.3332 4.86776 17.8503 3.70197 16.9907 2.84243C16.1312 1.98289 14.9654 1.5 13.7498 1.5C12.2832 1.5 11.2498 1.91667 9.99984 3.16667C8.74984 1.91667 7.7165 1.5 6.24984 1.5C5.03426 1.5 3.86847 1.98289 3.00893 2.84243C2.14939 3.70197 1.6665 4.86776 1.6665 6.08333C1.6665 8 2.9165 9.45833 4.1665 10.6667L9.99984 16.5L15.8332 10.6667Z" stroke="#3B82F6" stroke-width="1.66667" stroke-linecap="round" stroke-linejoin="round"/>
</svg>
