<svg width="33" height="32" viewBox="0 0 33 32" fill="none" xmlns="http://www.w3.org/2000/svg">
<path fill-rule="evenodd" clip-rule="evenodd" d="M16.4998 1.6665C8.58376 1.6665 2.1665 8.08376 2.1665 15.9998C2.1665 23.916 8.58376 30.3332 16.4998 30.3332C24.416 30.3332 30.8332 23.916 30.8332 15.9998C30.8332 8.08376 24.416 1.6665 16.4998 1.6665ZM10.5404 15.9594C10.1499 15.5689 9.51674 15.5689 9.12621 15.9594C8.73569 16.35 8.73569 16.983 9.12621 17.3736L13.1262 21.3736C13.5167 21.7641 14.15 21.7641 14.5404 21.3736L23.8737 12.0403C24.2642 11.6498 24.2642 11.0166 23.8737 10.6261C23.4832 10.2355 22.8501 10.2355 22.4596 10.6261L13.8333 19.2522L10.5404 15.9594Z" fill="url(#paint0_linear_258_527)"/>
<defs>
<linearGradient id="paint0_linear_258_527" x1="2.1665" y1="1.6665" x2="36.01" y2="41.3908" gradientUnits="userSpaceOnUse">
<stop stop-color="#3174DC"/>
<stop offset="1" stop-color="#F1F7FF"/>
</linearGradient>
</defs>
</svg>
