<svg width="20" height="20" viewBox="0 0 20 20" fill="none" xmlns="http://www.w3.org/2000/svg">
<g clip-path="url(#clip0_426_1475)">
<path d="M18.3332 10.0003H16.2665C15.9023 9.99955 15.5479 10.1181 15.2574 10.3378C14.967 10.5575 14.7565 10.8663 14.6582 11.217L12.6998 18.1837C12.6872 18.2269 12.6609 18.2649 12.6248 18.292C12.5888 18.319 12.5449 18.3337 12.4998 18.3337C12.4548 18.3337 12.4109 18.319 12.3748 18.292C12.3388 18.2649 12.3125 18.2269 12.2998 18.1837L7.69984 1.81699C7.68722 1.77372 7.6609 1.73571 7.62484 1.70866C7.58878 1.68161 7.54491 1.66699 7.49984 1.66699C7.45476 1.66699 7.4109 1.68161 7.37484 1.70866C7.33878 1.73571 7.31246 1.77372 7.29984 1.81699L5.3415 8.78366C5.24356 9.13295 5.03432 9.44076 4.74556 9.66034C4.45679 9.87992 4.10427 9.99929 3.7415 10.0003H1.6665" stroke="#3B82F6" stroke-width="1.66667" stroke-linecap="round" stroke-linejoin="round"/>
</g>
<defs>
<clipPath id="clip0_426_1475">
<path d="M0 0H20V20H0V0Z" fill="white"/>
</clipPath>
</defs>
</svg>
