<svg width="240" height="240" viewBox="0 0 240 240" fill="none" xmlns="http://www.w3.org/2000/svg">
<rect width="240" height="240" rx="34.6875" fill="#3174DC"/>
<path d="M163.07 137.622V75.8829H114.391V45.3857H193.567V137.622C193.567 157.02 188.781 174.729 177.197 187.738C165.359 201.033 148.424 207.188 128.912 207.188C109.363 207.188 94.7479 201.265 84.2015 193.052C73.8827 185.016 68.2896 175.447 65.415 169.193L93.1252 156.456C94.7116 159.907 97.682 164.896 102.94 168.991C107.971 172.908 115.946 176.691 128.912 176.691C141.916 176.691 149.684 172.777 154.42 167.457C159.411 161.853 163.07 152.403 163.07 137.622Z" fill="white"/>
<path d="M46.4917 60.542H101.437" stroke="white" stroke-width="20.8594"/>
<path d="M73.9661 32.8125L73.9661 88.269" stroke="white" stroke-width="20.8594"/>
<circle cx="66.704" cy="149.663" r="26.8153" fill="#F4864F" stroke="#3174DC" stroke-width="13.0351"/>
</svg>
